<svg width="1975" height="512" viewBox="0 0 1975 512" fill="none" xmlns="http://www.w3.org/2000/svg">
<path d="M1808.7 151.729C1767.39 151.729 1728.25 145.445 1698.5 134.032C1650.21 115.509 1643 89.6372 1643 75.8647C1643 62.0923 1650.21 36.2194 1698.5 17.6974C1728.25 6.28479 1767.39 0 1808.7 0C1850.02 0 1889.16 6.28479 1918.91 17.6974C1967.2 36.2204 1974.41 62.0923 1974.41 75.8647C1974.41 89.6372 1967.2 115.51 1918.91 134.032C1889.16 145.445 1850.02 151.729 1808.7 151.729ZM1808.7 39.9288C1772.69 39.9288 1737.73 45.414 1712.8 54.977C1690.23 63.6345 1682.93 72.7882 1682.93 75.8647C1682.93 78.9412 1690.23 88.0949 1712.8 96.7525C1737.74 106.315 1772.69 111.801 1808.7 111.801C1844.72 111.801 1879.67 106.315 1904.61 96.7525C1927.18 88.0949 1934.48 78.9412 1934.48 75.8647C1934.48 72.7882 1927.18 63.6345 1904.61 54.977C1879.67 45.414 1844.72 39.9288 1808.7 39.9288ZM1961.67 482.403C1971.74 477.908 1976.26 466.102 1971.76 456.034C1967.27 445.965 1955.46 441.445 1945.39 445.943C1908 462.64 1855.77 471.811 1802.06 471.124C1791.06 470.984 1781.98 479.802 1781.84 490.829C1781.7 501.853 1790.52 510.906 1801.55 511.049C1803.69 511.077 1805.82 511.091 1807.95 511.091C1865.72 511.09 1920.09 500.966 1961.67 482.403ZM1852.48 420.162C1893.63 416.279 1931.39 407.081 1961.67 393.561C1971.74 389.066 1976.26 377.26 1971.76 367.192C1967.27 357.122 1955.46 352.604 1945.39 357.101C1919.03 368.871 1885.61 376.931 1848.73 380.412C1837.75 381.447 1829.7 391.185 1830.73 402.163C1831.71 412.502 1840.4 420.253 1850.58 420.253C1851.21 420.252 1851.85 420.223 1852.48 420.162ZM1858.86 329.675C1897.49 325.481 1933.04 316.507 1961.67 303.721C1971.74 299.225 1976.26 287.421 1971.76 277.352C1967.27 267.283 1955.46 262.764 1945.39 267.261C1920.51 278.373 1889.09 286.229 1854.55 289.981C1843.59 291.171 1835.67 301.023 1836.86 311.984C1837.97 322.213 1846.62 329.795 1856.68 329.795C1857.4 329.794 1858.13 329.755 1858.86 329.675ZM1826.53 241.207C1877.17 239.24 1925.17 229.182 1961.67 212.883C1971.74 208.388 1976.26 196.582 1971.76 186.514C1967.27 176.446 1955.46 171.926 1945.39 176.423C1913.42 190.698 1870.66 199.535 1824.98 201.308C1813.96 201.736 1805.37 211.015 1805.8 222.032C1806.22 232.786 1815.07 241.223 1825.74 241.223C1826 241.221 1826.26 241.217 1826.53 241.207Z" fill="#FF5CF0"/>
<path d="M162.184 416.104C135.024 416.104 110.451 410.155 88.464 398.256C66.736 386.099 49.664 369.544 37.248 348.592C24.832 327.381 18.624 303.584 18.624 277.2C18.624 250.816 24.832 227.148 37.248 206.196C49.664 184.985 66.8653 168.431 88.852 156.532C110.839 144.375 135.412 138.296 162.572 138.296C183.783 138.296 203.183 141.917 220.772 149.16C238.361 156.144 253.364 166.62 265.78 180.588L240.56 205.032C220.125 183.563 194.647 172.828 164.124 172.828C143.948 172.828 125.712 177.355 109.416 186.408C93.12 195.461 80.316 208.007 71.004 224.044C61.9507 239.823 57.424 257.541 57.424 277.2C57.424 296.859 61.9507 314.707 71.004 330.744C80.316 346.523 93.12 358.939 109.416 367.992C125.712 377.045 143.948 381.572 164.124 381.572C194.388 381.572 219.867 370.708 240.56 348.98L265.78 373.424C253.364 387.392 238.232 397.997 220.384 405.24C202.795 412.483 183.395 416.104 162.184 416.104ZM371.78 415.328C351.345 415.328 332.98 410.801 316.684 401.748C300.388 392.695 287.584 380.279 278.272 364.5C269.218 348.463 264.692 330.356 264.692 310.18C264.692 290.004 269.218 272.027 278.272 256.248C287.584 240.211 300.388 227.795 316.684 219C332.98 209.947 351.345 205.42 371.78 205.42C392.214 205.42 410.45 209.947 426.488 219C442.784 227.795 455.458 240.211 464.512 256.248C473.824 272.027 478.48 290.004 478.48 310.18C478.48 330.356 473.824 348.463 464.512 364.5C455.458 380.279 442.784 392.695 426.488 401.748C410.45 410.801 392.214 415.328 371.78 415.328ZM371.78 382.736C384.972 382.736 396.741 379.761 407.088 373.812C417.693 367.604 425.97 359.068 431.92 348.204C437.869 337.081 440.844 324.407 440.844 310.18C440.844 295.953 437.869 283.408 431.92 272.544C425.97 261.421 417.693 252.885 407.088 246.936C396.741 240.987 384.972 238.012 371.78 238.012C358.588 238.012 346.689 240.987 336.084 246.936C325.737 252.885 317.46 261.421 311.252 272.544C305.302 283.408 302.328 295.953 302.328 310.18C302.328 324.407 305.302 337.081 311.252 348.204C317.46 359.068 325.737 367.604 336.084 373.812C346.689 379.761 358.588 382.736 371.78 382.736ZM700.713 125.104V413H665.017V380.408C656.74 391.789 646.264 400.455 633.589 406.404C620.914 412.353 606.946 415.328 591.685 415.328C571.768 415.328 553.92 410.931 538.141 402.136C522.362 393.341 509.946 381.055 500.893 365.276C492.098 349.239 487.701 330.873 487.701 310.18C487.701 289.487 492.098 271.251 500.893 255.472C509.946 239.693 522.362 227.407 538.141 218.612C553.92 209.817 571.768 205.42 591.685 205.42C606.429 205.42 620.009 208.265 632.425 213.956C644.841 219.388 655.188 227.536 663.465 238.4V125.104H700.713ZM594.789 382.736C607.722 382.736 619.492 379.761 630.097 373.812C640.702 367.604 648.98 359.068 654.929 348.204C660.878 337.081 663.853 324.407 663.853 310.18C663.853 295.953 660.878 283.408 654.929 272.544C648.98 261.421 640.702 252.885 630.097 246.936C619.492 240.987 607.722 238.012 594.789 238.012C581.597 238.012 569.698 240.987 559.093 246.936C548.746 252.885 540.469 261.421 534.261 272.544C528.312 283.408 525.337 295.953 525.337 310.18C525.337 324.407 528.312 337.081 534.261 348.204C540.469 359.068 548.746 367.604 559.093 373.812C569.698 379.761 581.597 382.736 594.789 382.736ZM933.761 311.344C933.761 314.189 933.503 317.94 932.985 322.596H766.145C768.473 340.703 776.363 355.317 789.813 366.44C803.523 377.304 820.465 382.736 840.641 382.736C865.215 382.736 885.003 374.459 900.005 357.904L920.569 381.96C911.257 392.824 899.617 401.101 885.649 406.792C871.94 412.483 856.549 415.328 839.477 415.328C817.749 415.328 798.479 410.931 781.665 402.136C764.852 393.083 751.789 380.537 742.477 364.5C733.424 348.463 728.897 330.356 728.897 310.18C728.897 290.263 733.295 272.285 742.089 256.248C751.143 240.211 763.429 227.795 778.949 219C794.728 209.947 812.447 205.42 832.105 205.42C851.764 205.42 869.224 209.947 884.485 219C900.005 227.795 912.033 240.211 920.569 256.248C929.364 272.285 933.761 290.651 933.761 311.344ZM832.105 236.848C814.257 236.848 799.255 242.28 787.097 253.144C775.199 264.008 768.215 278.235 766.145 295.824H898.065C895.996 278.493 888.883 264.396 876.725 253.532C864.827 242.409 849.953 236.848 832.105 236.848ZM984.056 175.156H890.936V141.4H1115.59V175.156H1022.47V413H984.056V175.156ZM1124.21 207.36H1161.46V413H1124.21V207.36ZM1142.83 167.784C1135.59 167.784 1129.51 165.456 1124.6 160.8C1119.94 156.144 1117.61 150.453 1117.61 143.728C1117.61 137.003 1119.94 131.312 1124.6 126.656C1129.51 121.741 1135.59 119.284 1142.83 119.284C1150.08 119.284 1156.02 121.612 1160.68 126.268C1165.6 130.665 1168.05 136.227 1168.05 142.952C1168.05 149.936 1165.6 155.885 1160.68 160.8C1156.02 165.456 1150.08 167.784 1142.83 167.784ZM1466.54 205.42C1492.41 205.42 1512.84 212.921 1527.84 227.924C1543.11 242.927 1550.74 265.172 1550.74 294.66V413H1513.49V298.928C1513.49 279.011 1508.83 264.008 1499.52 253.92C1490.47 243.832 1477.4 238.788 1460.33 238.788C1441.45 238.788 1426.45 244.737 1415.32 256.636C1404.2 268.276 1398.64 285.089 1398.64 307.076V413H1361.39V298.928C1361.39 279.011 1356.74 264.008 1347.42 253.92C1338.37 243.832 1325.31 238.788 1308.24 238.788C1289.35 238.788 1274.35 244.737 1263.23 256.636C1252.11 268.276 1246.54 285.089 1246.54 307.076V413H1209.3V207.36H1244.99V238.012C1252.49 227.407 1262.32 219.388 1274.48 213.956C1286.64 208.265 1300.48 205.42 1316 205.42C1332.03 205.42 1346.26 208.653 1358.68 215.12C1371.09 221.587 1380.66 231.028 1387.39 243.444C1395.15 231.545 1405.88 222.233 1419.59 215.508C1433.56 208.783 1449.21 205.42 1466.54 205.42ZM1782.98 311.344C1782.98 314.189 1782.72 317.94 1782.21 322.596H1615.37C1617.69 340.703 1625.58 355.317 1639.03 366.44C1652.74 377.304 1669.69 382.736 1689.86 382.736C1714.43 382.736 1734.22 374.459 1749.23 357.904L1769.79 381.96C1760.48 392.824 1748.84 401.101 1734.87 406.792C1721.16 412.483 1705.77 415.328 1688.7 415.328C1666.97 415.328 1647.7 410.931 1630.89 402.136C1614.07 393.083 1601.01 380.537 1591.7 364.5C1582.64 348.463 1578.12 330.356 1578.12 310.18C1578.12 290.263 1582.51 272.285 1591.31 256.248C1600.36 240.211 1612.65 227.795 1628.17 219C1643.95 209.947 1661.67 205.42 1681.33 205.42C1700.98 205.42 1718.44 209.947 1733.71 219C1749.23 227.795 1761.25 240.211 1769.79 256.248C1778.58 272.285 1782.98 290.651 1782.98 311.344ZM1681.33 236.848C1663.48 236.848 1648.47 242.28 1636.32 253.144C1624.42 264.008 1617.43 278.235 1615.37 295.824H1747.29C1745.22 278.493 1738.1 264.396 1725.95 253.532C1714.05 242.409 1699.17 236.848 1681.33 236.848Z" fill="#1428BF"/>
</svg>
