<svg width="840" height="100" viewBox="0 0 840 100" fill="none" xmlns="http://www.w3.org/2000/svg">
<path d="M40.0619 98.3636C58.6528 98.3636 70.3346 87.4545 71.2437 71.4091H52.971C51.8346 78.8636 46.9255 83.0455 40.2892 83.0455C31.2437 83.0455 25.3801 75.4545 25.3801 62.0909C25.3801 48.9091 31.2892 41.3636 40.2892 41.3636C47.3801 41.3636 51.9255 46.0455 52.971 53H71.2437C70.4256 36.8636 58.1983 26.2727 39.971 26.2727C18.7892 26.2727 5.69828 40.9545 5.69828 62.3636C5.69828 83.5909 18.5619 98.3636 40.0619 98.3636ZM115.187 98.3636C136.369 98.3636 149.551 83.8636 149.551 62.3636C149.551 40.7273 136.369 26.2727 115.187 26.2727C94.0051 26.2727 80.8233 40.7273 80.8233 62.3636C80.8233 83.8636 94.0051 98.3636 115.187 98.3636ZM115.278 83.3636C105.505 83.3636 100.505 74.4091 100.505 62.2273C100.505 50.0455 105.505 41.0455 115.278 41.0455C124.869 41.0455 129.869 50.0455 129.869 62.2273C129.869 74.4091 124.869 83.3636 115.278 83.3636ZM187.869 98.1364C199.141 98.1364 205.005 91.6364 207.687 85.8182H208.505V97H227.596V3.90909H208.278V38.9091H207.687C205.096 33.2273 199.505 26.2727 187.823 26.2727C172.505 26.2727 159.551 38.1818 159.551 62.1818C159.551 85.5455 171.96 98.1364 187.869 98.1364ZM194.005 82.7273C184.505 82.7273 179.323 74.2727 179.323 62.0909C179.323 50 184.414 41.6818 194.005 41.6818C203.414 41.6818 208.687 49.6364 208.687 62.0909C208.687 74.5455 203.323 82.7273 194.005 82.7273ZM275.335 98.3636C292.607 98.3636 304.244 89.9545 306.971 77L289.062 75.8182C287.107 81.1364 282.107 83.9091 275.653 83.9091C265.971 83.9091 259.835 77.5 259.835 67.0909V67.0455H307.38V61.7273C307.38 38 293.016 26.2727 274.562 26.2727C254.016 26.2727 240.698 40.8636 240.698 62.4091C240.698 84.5455 253.835 98.3636 275.335 98.3636ZM259.835 55.0455C260.244 47.0909 266.289 40.7273 274.88 40.7273C283.289 40.7273 289.107 46.7273 289.153 55.0455H259.835ZM357.153 27.1818H344.016V10.4545H324.653V27.1818H315.107V41.7273H324.653V78.0909C324.562 91.7727 333.88 98.5455 347.926 97.9545C352.926 97.7727 356.471 96.7727 358.426 96.1364L355.38 81.7273C354.426 81.9091 352.38 82.3636 350.562 82.3636C346.698 82.3636 344.016 80.9091 344.016 75.5455V41.7273H357.153V27.1818ZM369.766 97H389.13V57.5C389.13 48.9091 395.403 43 403.948 43C406.63 43 410.312 43.4545 412.13 44.0455V26.8636C410.403 26.4545 407.994 26.1818 406.039 26.1818C398.221 26.1818 391.812 30.7273 389.266 39.3636H388.539V27.1818H369.766V97ZM440.051 98.3182C450.369 98.3182 457.051 93.8182 460.46 87.3182H461.005V97H479.369V49.9091C479.369 33.2727 465.278 26.2727 449.732 26.2727C433.005 26.2727 422.005 34.2727 419.323 47L437.232 48.4545C438.551 43.8182 442.687 40.4091 449.641 40.4091C456.232 40.4091 460.005 43.7273 460.005 49.4545V49.7273C460.005 54.2273 455.232 54.8182 443.096 56C429.278 57.2727 416.869 61.9091 416.869 77.5C416.869 91.3182 426.732 98.3182 440.051 98.3182ZM445.596 84.9545C439.641 84.9545 435.369 82.1818 435.369 76.8636C435.369 71.4091 439.869 68.7273 446.687 67.7727C450.914 67.1818 457.823 66.1818 460.141 64.6364V72.0455C460.141 79.3636 454.096 84.9545 445.596 84.9545ZM525.937 98.3636C544.528 98.3636 556.21 87.4545 557.119 71.4091H538.846C537.71 78.8636 532.801 83.0455 526.164 83.0455C517.119 83.0455 511.255 75.4545 511.255 62.0909C511.255 48.9091 517.164 41.3636 526.164 41.3636C533.255 41.3636 537.801 46.0455 538.846 53H557.119C556.301 36.8636 544.073 26.2727 525.846 26.2727C504.664 26.2727 491.573 40.9545 491.573 62.3636C491.573 83.5909 504.437 98.3636 525.937 98.3636ZM569.516 97H588.88V74.8182L594.107 68.8636L613.153 97H635.835L608.607 57.4091L634.516 27.1818H612.289L589.926 53.6818H588.88V3.90909H569.516V97ZM672.96 98.3636C690.232 98.3636 701.869 89.9545 704.596 77L686.687 75.8182C684.732 81.1364 679.732 83.9091 673.278 83.9091C663.596 83.9091 657.46 77.5 657.46 67.0909V67.0455H705.005V61.7273C705.005 38 690.641 26.2727 672.187 26.2727C651.641 26.2727 638.323 40.8636 638.323 62.4091C638.323 84.5455 651.46 98.3636 672.96 98.3636ZM657.46 55.0455C657.869 47.0909 663.914 40.7273 672.505 40.7273C680.914 40.7273 686.732 46.7273 686.778 55.0455H657.46ZM717.641 97H737.005V57.5C737.005 48.9091 743.278 43 751.823 43C754.505 43 758.187 43.4545 760.005 44.0455V26.8636C758.278 26.4545 755.869 26.1818 753.914 26.1818C746.096 26.1818 739.687 30.7273 737.141 39.3636H736.414V27.1818H717.641V97Z" fill="white"/>
<rect x="839.211" width="100" height="60.196" transform="rotate(90 839.211 0)" fill="white"/>
</svg>
