<svg xmlns="http://www.w3.org/2000/svg" width="1975" height="512" fill="none" viewBox="0 0 1975 512"><path fill="#FF5CF0" d="M1808.7 151.729C1767.39 151.729 1728.25 145.445 1698.5 134.032C1650.21 115.509 1643 89.6372 1643 75.8647C1643 62.0923 1650.21 36.2194 1698.5 17.6974C1728.25 6.28479 1767.39 0 1808.7 0C1850.02 0 1889.16 6.28479 1918.91 17.6974C1967.2 36.2204 1974.41 62.0923 1974.41 75.8647C1974.41 89.6372 1967.2 115.51 1918.91 134.032C1889.16 145.445 1850.02 151.729 1808.7 151.729ZM1808.7 39.9288C1772.69 39.9288 1737.73 45.414 1712.8 54.977C1690.23 63.6345 1682.93 72.7882 1682.93 75.8647C1682.93 78.9412 1690.23 88.0949 1712.8 96.7525C1737.74 106.315 1772.69 111.801 1808.7 111.801C1844.72 111.801 1879.67 106.315 1904.61 96.7525C1927.18 88.0949 1934.48 78.9412 1934.48 75.8647C1934.48 72.7882 1927.18 63.6345 1904.61 54.977C1879.67 45.414 1844.72 39.9288 1808.7 39.9288ZM1961.67 482.403C1971.74 477.908 1976.26 466.102 1971.76 456.034C1967.27 445.965 1955.46 441.445 1945.39 445.943C1908 462.64 1855.77 471.811 1802.06 471.124C1791.06 470.984 1781.98 479.802 1781.84 490.829C1781.7 501.853 1790.52 510.906 1801.55 511.049C1803.69 511.077 1805.82 511.091 1807.95 511.091C1865.72 511.09 1920.09 500.966 1961.67 482.403ZM1852.48 420.162C1893.63 416.279 1931.39 407.081 1961.67 393.561C1971.74 389.066 1976.26 377.26 1971.76 367.192C1967.27 357.122 1955.46 352.604 1945.39 357.101C1919.03 368.871 1885.61 376.931 1848.73 380.412C1837.75 381.447 1829.7 391.185 1830.73 402.163C1831.71 412.502 1840.4 420.253 1850.58 420.253C1851.21 420.252 1851.85 420.223 1852.48 420.162ZM1858.86 329.675C1897.49 325.481 1933.04 316.507 1961.67 303.721C1971.74 299.225 1976.26 287.42 1971.76 277.352C1967.27 267.283 1955.46 262.764 1945.39 267.261C1920.51 278.373 1889.09 286.229 1854.55 289.981C1843.59 291.171 1835.67 301.023 1836.86 311.984C1837.97 322.213 1846.62 329.795 1856.68 329.795C1857.4 329.794 1858.13 329.755 1858.86 329.675ZM1826.53 241.207C1877.17 239.24 1925.17 229.182 1961.67 212.883C1971.74 208.388 1976.26 196.582 1971.76 186.514C1967.27 176.446 1955.46 171.926 1945.39 176.423C1913.42 190.698 1870.66 199.535 1824.98 201.308C1813.96 201.736 1805.37 211.015 1805.8 222.032C1806.22 232.786 1815.07 241.223 1825.74 241.223C1826 241.221 1826.26 241.217 1826.53 241.207Z"/><path fill="#1428BF" d="M155.976 159.236C75.66 159.236 13.192 218.6 13.192 295.812C13.192 373.8 74.884 433.94 154.424 433.94C192.836 433.94 232.024 416.48 259.572 389.32L232.412 359.056C211.848 378.844 183.912 391.26 156.752 391.26C102.432 391.26 59.752 348.968 59.752 295.424C59.752 241.88 102.432 199.976 156.752 199.976C184.3 199.976 212.624 213.168 232.412 234.508L259.184 201.14C232.8 175.144 194.388 159.236 155.976 159.236ZM363.019 224.032C298.999 224.032 255.155 266.324 255.155 328.792C255.155 390.872 298.999 433.552 363.019 433.552C426.651 433.552 470.495 390.872 470.495 328.792C470.495 266.324 426.651 224.032 363.019 224.032ZM363.019 262.444C399.879 262.444 425.875 289.604 425.875 329.18C425.875 369.144 399.879 396.304 363.019 396.304C325.771 396.304 299.775 369.144 299.775 329.18C299.775 289.604 325.771 262.444 363.019 262.444ZM690.491 144.104H645.871V261.28C630.739 237.224 605.907 223.644 572.539 223.644C514.339 223.644 474.375 265.936 474.375 328.016C474.375 390.872 513.951 433.94 573.315 433.94C606.295 433.94 631.127 420.748 645.871 396.692V432H690.491V144.104ZM582.627 396.692C544.991 396.692 519.383 368.756 518.995 329.568C519.383 289.992 545.379 261.668 582.627 261.668C619.875 261.668 645.871 289.604 645.871 329.568C645.871 368.756 619.875 396.692 582.627 396.692ZM819.944 224.032C758.64 224.42 715.572 266.712 715.572 329.18C715.572 391.26 757.476 433.552 821.108 433.552C856.804 433.552 886.292 420.748 906.468 398.632L882.8 373.412C867.668 388.932 847.104 397.468 824.6 397.468C792.008 397.468 767.564 377.68 760.58 345.864H916.556C921.988 271.368 892.5 224.032 819.944 224.032ZM759.804 313.272C764.848 280.292 787.74 259.728 820.332 259.728C854.088 259.728 876.204 279.904 877.756 313.272H759.804ZM1100.69 201.528V160.4H883.024V201.528H968.772V432H1014.56V201.528H1100.69ZM1136.04 139.448C1121.3 139.448 1110.04 150.7 1110.04 166.608C1110.04 182.128 1121.3 193.38 1136.04 193.38C1150.78 193.38 1162.04 182.128 1162.04 166.608C1162.04 150.7 1150.78 139.448 1136.04 139.448ZM1158.16 432V225.584H1113.92V432H1158.16ZM1470.18 224.032C1432.54 224.032 1404.99 239.164 1391.8 273.696C1382.1 242.268 1356.88 224.032 1320.02 224.032C1285.88 224.032 1259.49 236.448 1245.14 265.548V225.584H1200.91V432H1245.14V329.956C1245.14 293.872 1266.87 266.712 1302.56 265.548C1332.83 265.548 1351.06 284.56 1351.06 315.988V432H1395.68V329.956C1395.68 293.872 1417.02 266.712 1452.33 265.548C1482.59 265.548 1501.22 284.56 1501.22 315.988V432H1545.84V303.572C1545.84 254.296 1517.51 224.032 1470.18 224.032ZM1667.27 224.032C1605.97 224.42 1562.9 266.712 1562.9 329.18C1562.9 391.26 1604.8 433.552 1668.43 433.552C1704.13 433.552 1733.62 420.748 1753.79 398.632L1730.13 373.412C1714.99 388.932 1694.43 397.468 1671.93 397.468C1639.33 397.468 1614.89 377.68 1607.91 345.864H1763.88C1769.31 271.368 1739.83 224.032 1667.27 224.032ZM1607.13 313.272C1612.17 280.292 1635.07 259.728 1667.66 259.728C1701.41 259.728 1723.53 279.904 1725.08 313.272H1607.13Z"/></svg>